<svg xmlns="http://www.w3.org/2000/svg" width="24" height="20" viewBox="0 0 24 20">
  <defs>
    <style>
      .cls-1 {
        fill: #fff;
        fill-rule: evenodd;
      }
    </style>
  </defs>
  <path id="fa-shopping-cart" class="cls-1" d="M103.23,48.177A1.846,1.846,0,1,0,101.384,50,1.826,1.826,0,0,0,103.23,48.177Zm12.923,0A1.846,1.846,0,1,0,114.307,50,1.826,1.826,0,0,0,116.153,48.177ZM118,32.728a0.922,0.922,0,0,0-.923-0.909H99.755C99.61,31.138,99.6,30,98.615,30H94.923a0.909,0.909,0,1,0,0,1.818h2.942l2.553,11.686a7.792,7.792,0,0,0-.88,1.945,0.922,0.922,0,0,0,.923.909H115.23a0.909,0.909,0,1,0,0-1.817H101.961a2.133,2.133,0,0,0,.346-0.909,5.735,5.735,0,0,0-.187-0.994l15.057-1.732A0.924,0.924,0,0,0,118,40v-7.27Z" transform="translate(-94 -30)"/>
</svg>
